<svg width="544" height="148" viewBox="0 0 544 148" fill="none" xmlns="http://www.w3.org/2000/svg">
<path fill-rule="evenodd" clip-rule="evenodd" d="M75 0C116.421 0 150 33.1309 150 74C150 114.869 116.421 148 75 148C33.5787 148 0 114.869 0 74C0 33.1309 33.5787 0 75 0ZM75 44.77C64.8518 44.77 56.625 52.8871 56.625 62.9C56.625 69.2209 59.9043 74.7851 64.875 78.0299V93.61C64.875 99.1273 69.4081 103.6 75 103.6C80.5919 103.6 85.125 99.1273 85.125 93.61V78.0299C90.0957 74.7851 93.375 69.2209 93.375 62.9C93.375 52.8871 85.1482 44.77 75 44.77Z" fill="white"/>
<path d="M478.423 108.472C476.483 108.472 474.91 106.887 474.91 104.931V44.7222C474.91 42.7662 476.483 41.1806 478.423 41.1806H485.023C486.305 41.1806 487.486 41.8851 488.103 43.0187L509.588 82.5L530.997 43.0239C531.614 41.8874 532.796 41.1806 534.08 41.1806H540.487C542.427 41.1806 544 42.7662 544 44.7222V104.931C544 106.887 542.427 108.472 540.487 108.472H534.187C532.246 108.472 530.673 106.887 530.673 104.931L530.692 67.7431L514.479 96.5494C513.857 97.6645 512.687 98.3546 511.417 98.3546H507.302C506.034 98.3546 504.864 97.6658 504.241 96.5522L488.142 67.763V104.931C488.142 106.887 486.569 108.472 484.629 108.472H478.423Z" fill="white"/>
<path d="M412.846 108.472C410.906 108.472 409.333 106.887 409.333 104.931V44.7222C409.333 42.7662 410.906 41.1806 412.846 41.1806H439.474C446.838 41.1806 452.516 42.9941 456.51 46.6212C460.504 50.2482 462.501 55.307 462.501 61.7976C462.501 65.9973 461.596 69.6244 459.786 72.6788C457.977 75.7332 455.356 78.0876 451.924 79.742C450.755 80.3158 449.492 80.7901 448.136 81.1649C449.122 81.4943 450.041 82.0165 450.894 82.6055C452.891 83.8782 454.607 85.8508 456.042 88.5233L463.919 103.25C465.182 105.609 463.487 108.472 460.827 108.472H452.809C451.515 108.472 450.325 107.754 449.713 106.604L439.287 86.9962C438.663 85.8508 437.945 84.9599 437.134 84.3236C436.323 83.6236 435.387 83.1464 434.326 82.8919C433.327 82.5737 432.204 82.4146 430.956 82.4146H423.842V104.931C423.842 106.887 422.269 108.472 420.329 108.472H412.846ZM423.842 71.7243H436.853C440.722 71.7243 443.624 70.9289 445.558 69.3381C447.555 67.7472 448.554 65.361 448.554 62.1794C448.554 59.0614 447.555 56.707 445.558 55.1161C443.624 53.5253 440.722 52.7299 436.853 52.7299H423.842V71.7243Z" fill="white"/>
<path d="M375.956 108.968C368.804 108.968 362.688 107.545 357.606 104.699C352.525 101.853 348.604 97.8683 345.844 92.7455C343.146 87.5595 341.798 81.4565 341.798 74.4364C341.798 67.4163 343.146 61.3449 345.844 56.2221C348.604 51.0993 352.525 47.115 357.606 44.269C362.688 41.423 368.804 40 375.956 40C380.347 40 384.55 40.6957 388.565 42.0871C391.68 43.1665 394.36 44.5505 396.607 46.239C397.764 47.1086 398.101 48.6699 397.576 50.0251L395.641 55.0246C394.787 57.2313 392.3 58.1085 390.033 56.7859C388.487 55.8837 386.931 55.1582 385.366 54.6094C382.543 53.5342 379.563 52.9967 376.426 52.9967C370.153 52.9967 365.385 54.8623 362.123 58.5937C358.861 62.2619 357.23 67.5428 357.23 74.4364C357.23 81.33 358.861 86.6425 362.123 90.3739C365.385 94.1053 370.153 95.971 376.426 95.971C379.563 95.971 382.543 95.465 385.366 94.4531C386.934 93.8689 388.493 93.1165 390.042 92.1961C392.172 90.9312 394.787 91.7363 395.641 93.943L397.576 98.9425C398.101 100.298 397.764 101.859 396.607 102.729C394.36 104.417 391.68 105.801 388.565 106.881C384.55 108.272 380.347 108.968 375.956 108.968Z" fill="white"/>
<path d="M300.732 125C298.188 125 296.487 122.359 297.523 120.017L304.101 104.931L287.448 66.1795C286.461 63.8434 288.161 61.25 290.68 61.25H297.611C299.063 61.25 300.365 62.1503 300.889 63.5156L311.36 90.9461L322.183 63.4839C322.715 62.1353 324.009 61.25 325.448 61.25H331.541C334.068 61.25 335.769 63.8603 334.765 66.1987L310.431 122.865C309.875 124.161 308.608 125 307.207 125H300.732Z" fill="white"/>
<path d="M263.673 108.968C258.215 108.968 253.51 107.987 249.558 106.027C245.668 104.003 242.657 101.189 240.524 97.5837C238.454 93.9155 237.419 89.6149 237.419 84.6819C237.419 79.8754 238.423 75.6696 240.43 72.0647C242.438 68.3966 245.229 65.5506 248.805 63.5268C252.443 61.4397 256.552 60.3962 261.132 60.3962C265.649 60.3962 269.538 61.3765 272.8 63.337C276.062 65.2344 278.572 67.9539 280.328 71.4955C282.147 75.0372 283.057 79.2429 283.057 84.1127V84.1759C283.057 86.132 281.484 87.7176 279.544 87.7176H249.087V80.3181H271.259C271.083 77.1139 270.248 74.6474 268.754 72.9185C267.123 70.8947 264.771 69.8828 261.697 69.8828C259.375 69.8828 257.399 70.4204 255.768 71.4955C254.137 72.5707 252.883 74.1201 252.004 76.144C251.126 78.1678 250.687 80.6027 250.687 83.4486V84.2076C250.687 87.433 251.157 90.0893 252.098 92.1763C253.102 94.2001 254.576 95.718 256.521 96.7299C258.529 97.7418 261.007 98.2478 263.955 98.2478C266.464 98.2478 269.005 97.8683 271.577 97.1094C272.619 96.8019 273.62 96.427 274.579 95.9847C277.168 94.8958 279.51 95.4861 280.243 97.9328L281.321 100.677C281.902 102.157 281.444 103.867 280.083 104.673C278.232 105.77 276.118 106.696 273.741 107.45C270.416 108.462 267.06 108.968 263.673 108.968Z" fill="white"/>
<path d="M190.573 108.472C188.6 108.472 187 106.87 187 104.893V44.7599C187 42.7831 188.6 41.1806 190.573 41.1806H197.814C199.788 41.1806 201.387 42.7831 201.387 44.7599V80.9829H201.578L217.758 62.804C218.436 62.0423 219.406 61.6067 220.425 61.6067H227.94C231.02 61.6067 232.657 65.25 230.614 67.5596L216.052 84.0256L231.809 102.571C233.786 104.894 232.138 108.472 229.09 108.472H221.098C220.076 108.472 219.102 108.034 218.424 107.268L201.578 88.237H201.387V104.893C201.387 106.87 199.788 108.472 197.814 108.472H190.573Z" fill="white"/>
</svg>
